<?xml version="1.0" encoding="UTF-8" standalone="no"?>
<!-- Created with Inkscape (http://www.inkscape.org/) -->
<!-- http://www.se.com.sa/cservices/docs/ContractorHandbookEnglish.pdf -->
<svg
   xmlns:svg="http://www.w3.org/2000/svg"
   xmlns="http://www.w3.org/2000/svg"
   version="1.0"
   width="241"
   height="67">
  <path
     d="M 48.4266,29.178 L 48.3329,29.178 C 55.1303,40.162 56.6391,51.376 52.1504,57.39 C 46.0754,65.541 30.1841,61.041 16.7079,47.339 C 3.5166,33.953 -2.5109,16.734 2.9066,8.343 C 2.7803,8.489 2.6641,8.643 2.5429,8.809 C -3.9634,17.506 2.4441,36.461 16.8741,51.112 C 31.2878,65.756 48.2704,70.558 54.7866,61.842 C 59.9203,54.957 56.9716,41.683 48.4266,29.178 M 45.2272,23.783 C 46.9409,25.789 47.4672,28.132 46.4122,28.985 C 45.3547,29.852 43.0922,28.917 41.3759,26.895 C 39.6635,24.869 39.1322,22.543 40.1897,21.685 C 41.2509,20.839 43.4947,21.764 45.2272,23.783"
     style="fill:#f78b1f;fill-opacity:1;fill-rule:nonzero;stroke:none" />
  <path
     d="M 23.2752,3.263 C 28.3815,3.863 35.2052,6.83 39.4202,11.413 C 33.9127,4.759 26.4264,0.269 19.2415,0.011 C 7.5864,-0.4 1.054,10.492 4.6914,24.339 C 5.2015,26.261 5.8839,28.15 6.6964,29.977 C 7.8602,32.756 9.4489,35.588 11.5302,38.312 C 12.9052,40.131 14.4164,41.806 16.0177,43.39 C 14.8939,42.233 13.8327,40.999 12.8314,39.71 C 3.3115,27.164 4.5252,13.309 16.0177,9.303 C 21.0564,7.54 27.5314,8.297 33.5939,10.251 C 27.8815,6.378 20.9677,3.954 13.3102,6.483 C 10.4677,7.433 8.3265,9.142 6.8665,11.378 C 9.2352,5.527 14.5639,2.228 23.2752,3.263 M 67.4965,20.533 C 67.7403,20.533 68.0415,20.612 68.3752,20.797 C 68.6128,20.973 68.8778,21.14 69.1328,21.307 C 69.7827,20.34 70.1227,19.829 70.1227,19.759 C 70.1227,19.434 69.964,19.137 69.669,18.878 C 69.3528,18.632 69.034,18.509 68.699,18.509 C 67.689,18.509 66.7378,18.917 65.834,19.749 C 64.9603,20.55 64.5277,21.468 64.5277,22.433 C 64.5277,22.857 64.7903,23.16 65.3503,23.335 C 65.7752,23.428 66.2278,23.553 66.669,23.673 C 66.2278,23.912 65.7878,24.212 65.409,24.569 C 64.9365,25.039 64.7103,25.479 64.749,25.849 L 64.749,25.994 C 66.3102,24.62 68.1478,23.912 70.2315,23.845 C 70.7465,23.167 71.184,22.523 71.5765,21.908 C 68.5877,21.908 66.8503,21.639 66.3102,21.08 C 66.8127,20.699 67.204,20.533 67.4965,20.533 M 84.3915,20.486 C 84.3915,19.771 84.219,19.036 83.8965,18.296 C 83.5952,17.568 83.1465,16.969 82.629,16.539 L 81.299,18.834 C 81.5715,19.062 81.8502,19.464 82.1852,20.025 C 82.5265,20.587 82.6965,21.016 82.6965,21.339 C 82.6965,21.387 82.6803,21.421 82.6577,21.421 L 78.774,21.421 L 78.009,21.421 L 77.5803,21.421 C 77.119,21.421 76.879,21.292 76.8253,21.045 C 76.6428,20.258 76.464,18.967 76.3415,17.146 C 76.249,15.809 76.149,14.464 76.0628,13.104 C 75.8978,13.225 75.639,13.577 75.199,14.119 C 74.7428,14.679 74.4977,15.025 74.4977,15.13 L 75.304,23.846 L 78.009,23.846 L 78.774,23.846 L 83.7178,23.846 C 84.1565,23.846 84.3915,22.72 84.3915,20.486 M 81.6927,25.771 C 81.1289,25.282 80.8239,25.038 80.7077,25.038 C 80.6189,25.038 80.3064,25.282 79.7839,25.771 C 79.2702,26.266 78.9927,26.577 78.9927,26.642 C 78.9927,26.732 79.2477,26.977 79.7602,27.392 C 80.2814,27.775 80.6064,27.982 80.7464,28.002 C 81.9314,27.348 82.5252,26.911 82.5252,26.675 C 82.5252,26.577 82.2589,26.266 81.6927,25.771 M 117.229,14.846 C 116.513,14.429 116.098,14.119 116.039,13.911 C 115.941,13.727 115.906,13.471 115.888,13.176 L 115.758,13.066 C 115.263,13.596 114.72,14.462 114.118,15.671 C 114.374,15.957 114.6,16.204 114.848,16.352 C 114.974,16.687 115.133,17.476 115.327,18.701 C 115.53,19.938 115.624,20.761 115.624,21.175 C 115.624,21.247 115.609,21.337 115.555,21.421 L 113.865,21.421 C 113.487,21.421 113.29,21.396 113.255,21.386 C 113.038,21.362 112.931,21.24 112.885,21.016 C 112.814,20.486 112.702,19.152 112.57,17.031 C 112.457,15.354 112.264,14.029 112.005,13.051 L 111.925,12.989 L 110.174,15.4 L 111.1,21.421 L 108.715,21.421 L 108.29,21.421 C 107.63,21.421 106.71,20.786 105.539,19.541 C 104.743,18.63 103.934,17.727 103.132,16.841 L 108.323,15.809 C 108.598,14.971 108.811,14.182 108.988,13.42 C 108.795,13.386 106.513,13.845 102.145,14.759 C 101.718,15.849 101.416,16.942 101.199,18.056 L 104.79,21.421 L 101.221,21.421 L 99.0877,21.421 C 99.364,20.815 99.599,20.235 99.8603,19.672 C 100.172,18.86 100.327,18.279 100.327,17.91 L 100.327,16.611 C 99.6377,16.611 98.8327,17.011 97.964,17.776 C 97.1815,18.43 96.5877,19.106 96.1677,19.839 C 95.8502,20.532 95.614,21.045 95.4915,21.421 L 94.7253,21.421 L 94.2903,21.421 C 93.3502,21.421 92.6377,21.089 92.1077,20.445 C 91.6615,19.777 91.1878,19.099 90.7452,18.437 C 90.6215,18.579 90.3815,18.947 90.0065,19.549 C 89.6215,20.149 89.449,20.486 89.449,20.569 C 89.449,20.569 89.679,20.896 90.094,21.447 C 90.5452,22.011 90.7728,22.417 90.7728,22.684 C 90.7728,23.194 90.1277,23.85 88.8577,24.69 C 87.6115,25.51 86.6427,25.922 85.9803,25.922 C 85.5802,25.922 85.094,25.771 84.5327,25.471 C 83.9853,25.174 83.7377,25.015 83.7727,25.015 C 83.7165,25.015 83.6777,25.034 83.6777,25.034 L 83.6777,25.341 C 84.0815,25.796 84.8128,26.281 85.8952,26.806 C 86.9653,27.312 87.7903,27.579 88.3327,27.579 C 89.1765,27.579 89.9265,27.1 90.6215,26.132 C 91.114,25.326 91.5915,24.509 92.0515,23.688 L 92.1627,23.56 C 92.5353,23.757 92.8427,23.845 93.0615,23.845 L 93.7127,23.845 L 94.7253,23.845 L 94.7428,23.845 C 94.799,23.845 94.9778,24.106 95.2627,24.656 C 95.614,25.341 95.9565,25.849 96.239,26.184 C 96.6965,26.732 97.1815,27.002 97.654,27.002 C 98.914,27.002 99.8665,25.979 100.534,23.845 L 104.859,23.845 L 105.798,22.326 L 107.454,23.845 L 109.329,23.845 L 110.33,23.845 L 111.123,22.382 C 111.135,22.666 111.154,22.931 111.19,23.225 C 111.239,23.64 111.346,23.845 111.531,23.845 L 113.175,23.845 L 113.865,23.845 L 116.21,23.845 C 116.415,23.74 116.525,23.661 116.556,23.616 C 116.674,23.486 116.793,23.04 116.962,22.277 C 117.15,21.536 117.21,21.045 117.179,20.862 L 116.933,17.876 L 118.716,15.62 C 118.291,15.446 117.816,15.174 117.229,14.846 M 98.959,24.619 L 98.4165,24.619 C 98.0303,24.619 97.654,24.497 97.2965,24.232 C 96.9352,23.987 96.649,23.672 96.4928,23.306 C 96.9352,23.306 97.394,23.406 97.884,23.599 C 98.4165,23.845 98.7827,24.145 98.959,24.465 L 98.959,24.619 z M 98.2465,20.34 C 97.7752,20.532 97.259,20.699 96.7852,20.896 L 96.629,20.896 C 97.5678,19.719 98.3452,18.94 98.894,18.589 C 98.9415,18.727 98.959,18.901 98.959,19.099 C 98.959,19.677 98.7127,20.105 98.2465,20.34 M 126.333,14.39 C 127.369,15.003 128.014,15.305 128.19,15.305 C 128.294,15.305 128.502,15.115 128.893,14.678 C 129.224,14.286 129.446,14.004 129.56,13.826 L 127.65,12.84 C 126.813,13.46 126.419,13.764 126.449,13.764 C 126.17,13.764 125.603,13.46 124.72,12.84 C 123.961,13.65 123.511,14.141 123.382,14.329 C 124.193,14.83 124.81,15.13 125.267,15.289 C 125.804,14.785 126.144,14.485 126.333,14.39 M 136.593,25.86 C 136.306,26.167 136.114,26.311 136.01,26.311 C 135.83,26.311 135.278,25.994 134.376,25.366 C 133.948,25.87 133.531,26.382 133.168,26.893 C 133.531,27.208 134.121,27.556 134.904,27.974 C 135.368,27.499 135.706,27.164 135.931,26.961 L 137.65,27.974 C 138.045,27.666 138.483,27.154 138.961,26.454 L 137.138,25.342 C 137.074,25.411 136.885,25.56 136.593,25.86 M 136.968,18.917 C 137.619,19.778 138.078,20.599 138.363,21.422 L 133.656,21.422 L 132.882,21.422 L 132.528,21.422 C 131.917,21.422 131.572,21.241 131.436,20.897 C 131.215,20.259 130.968,19.227 130.742,17.765 C 130.448,16.046 130.233,14.934 130.079,14.411 L 129.965,14.347 L 128.602,16.624 C 128.648,16.847 128.731,17.059 128.822,17.296 C 128.014,17.765 127.169,18.221 126.34,18.684 C 125.768,19.03 125.345,19.465 125.074,19.957 C 124.783,20.441 124.489,21.34 124.155,22.641 L 128.295,23.351 C 128.488,23.395 128.742,23.146 129.06,22.633 C 129.405,21.994 129.63,21.65 129.738,21.573 C 129.904,22.062 130.054,22.516 130.205,22.983 C 130.448,23.561 130.839,23.846 131.32,23.846 L 132.882,23.846 L 133.656,23.846 L 139.519,23.846 C 139.843,22.151 140.02,20.997 140.02,20.377 C 140.02,19.314 139.447,18.099 138.25,16.749 L 136.968,18.917 z M 127.189,20.164 C 127.52,19.883 127.81,19.678 128.061,19.591 C 128.522,19.153 128.893,18.789 129.082,18.492 L 129.496,20.465 L 127.189,20.164 z M 144.046,16.204 L 143.243,18.755 C 143.695,18.806 144.24,19.153 144.913,19.778 C 145.609,20.408 145.939,20.923 145.939,21.326 C 145.939,21.326 145.939,21.38 145.929,21.421 L 141.475,21.421 L 141.244,23.845 L 146.748,23.845 C 147.268,23.845 147.496,22.983 147.496,21.291 C 147.496,18.901 146.344,17.21 144.046,16.204 M 179.298,14.846 C 178.572,14.429 178.171,14.119 178.084,13.911 C 178.01,13.727 177.964,13.471 177.947,13.176 L 177.812,13.066 C 177.322,13.596 176.786,14.462 176.195,15.671 C 176.439,15.957 176.662,16.204 176.891,16.352 C 177.037,16.687 177.201,17.476 177.394,18.701 C 177.587,19.938 177.689,20.761 177.689,21.175 C 177.689,21.247 177.65,21.337 177.627,21.421 L 176.038,21.421 L 175.457,21.421 C 174.728,21.421 174.371,20.957 174.371,20.025 C 174.387,19.964 174.387,19.864 174.387,19.707 C 174.387,19.549 174.387,19.462 174.371,19.365 C 174.371,18.977 174.356,18.667 174.299,18.437 C 174.113,18.537 173.82,18.832 173.412,19.346 C 172.998,19.829 172.784,20.184 172.784,20.369 C 172.784,20.445 172.815,20.569 172.865,20.744 C 172.899,20.922 172.924,21.045 172.924,21.122 C 172.924,21.221 172.877,21.326 172.815,21.421 C 171.775,21.362 171.186,21.362 171.103,21.421 C 171.344,20.376 171.466,19.406 171.466,18.491 C 171.466,18.415 171.447,18.325 171.406,18.247 C 171.157,18.437 170.834,18.819 170.411,19.365 C 169.978,19.985 169.749,20.394 169.749,20.599 C 169.749,21.005 169.688,21.275 169.546,21.421 L 168.644,21.421 L 167.716,21.421 L 167.531,21.421 C 167.971,20.13 168.221,19.28 168.221,18.877 L 168.166,18.304 C 167.924,18.406 167.608,18.699 167.151,19.19 C 166.721,19.677 166.49,20.034 166.49,20.235 C 166.49,20.656 166.392,21.045 166.219,21.421 L 164.332,21.421 L 163.621,21.421 L 162.863,21.421 C 163.043,21.14 163.198,20.886 163.341,20.63 C 163.553,20.305 163.656,20.041 163.656,19.829 C 163.656,19.234 163.315,18.699 162.644,18.247 C 162.028,17.844 161.403,17.63 160.752,17.63 C 159.685,17.63 158.9,17.876 158.391,18.406 C 158.114,18.699 157.725,19.406 157.206,20.532 C 157.725,20.464 157.986,20.445 158.04,20.445 C 158.76,20.445 159.344,20.761 159.817,21.421 L 156.931,21.421 L 155.991,21.421 L 155.577,21.421 C 155.17,18.852 154.449,17.576 153.419,17.576 C 152.755,17.576 152.076,18.21 151.411,19.434 C 150.822,20.545 150.521,21.447 150.521,22.15 C 150.521,22.807 150.892,23.257 151.683,23.511 C 151.782,23.552 152.436,23.676 153.654,23.87 C 153.116,24.39 152.436,24.869 151.649,25.284 C 150.755,25.727 149.978,25.979 149.29,25.979 C 149.095,25.979 148.775,25.904 148.33,25.771 C 147.879,25.676 147.565,25.602 147.331,25.602 C 147.267,25.602 147.176,25.656 147.115,25.684 L 147.115,25.904 C 147.496,26.331 148.127,26.719 149.005,27.039 C 149.846,27.349 150.594,27.497 151.216,27.497 C 151.994,27.497 152.804,27.062 153.636,26.184 C 154.295,25.502 154.808,24.716 155.222,23.845 L 155.991,23.845 L 156.931,23.845 L 160.074,23.845 C 160.418,23.335 160.65,22.982 160.79,22.72 C 161.088,23.206 161.324,23.591 161.457,23.845 L 163.621,23.845 L 164.332,23.845 L 165.63,23.845 C 165.772,23.845 165.928,23.74 166.096,23.56 C 166.262,23.369 166.377,23.264 166.448,23.225 C 166.573,23.442 166.632,23.65 166.638,23.845 L 167.716,23.845 L 168.644,23.845 L 169.353,23.845 C 169.397,23.845 169.478,23.775 169.594,23.64 C 169.749,23.511 169.811,23.427 169.867,23.427 C 169.978,23.427 170.127,23.56 170.329,23.845 L 173.375,23.845 C 173.582,23.56 173.728,23.35 173.832,23.225 C 173.966,23.486 174.07,23.688 174.135,23.845 L 175.231,23.845 L 176.038,23.845 L 178.252,23.845 C 178.481,23.74 178.589,23.661 178.623,23.616 C 178.731,23.486 178.846,23.04 179.019,22.277 C 179.185,21.536 179.26,21.045 179.242,20.862 L 178.978,17.876 L 180.752,15.62 C 180.35,15.446 179.867,15.174 179.298,14.846 M 153.295,21.421 C 152.632,21.421 152.194,21.188 151.928,20.744 C 151.957,20.71 151.957,20.676 151.928,20.645 C 151.928,20.545 152.007,20.394 152.218,20.197 C 152.42,19.985 152.574,19.887 152.691,19.887 C 152.906,19.887 153.147,20.105 153.365,20.445 C 153.375,20.486 153.514,20.761 153.76,21.291 C 153.614,21.38 153.45,21.421 153.295,21.421 M 182.644,16.873 L 183.685,24.017 C 184.56,23.037 184.976,21.753 184.976,20.259 C 184.976,18.941 184.781,16.847 184.329,13.965 C 183.486,15.078 182.933,16.053 182.644,16.873 M 193.643,14.39 C 194.68,15.003 195.333,15.305 195.51,15.305 C 195.595,15.305 195.839,15.115 196.224,14.678 C 196.546,14.286 196.791,14.004 196.894,13.826 L 194.97,12.84 C 194.155,13.46 193.744,13.764 193.785,13.764 C 193.511,13.764 192.929,13.46 192.041,12.84 C 191.304,13.65 190.845,14.141 190.694,14.329 C 191.512,14.83 192.157,15.13 192.606,15.289 C 193.141,14.785 193.486,14.485 193.643,14.39 M 205.696,18.878 C 204.8,18.212 203.903,17.501 203.029,16.783 C 205.168,16.153 206.788,15.673 207.868,15.351 C 208.154,14.478 208.367,13.65 208.538,12.914 L 201.332,14.979 C 201.216,15.474 201.072,15.958 200.968,16.434 C 200.782,17.047 200.713,17.528 200.713,17.877 C 200.713,18.004 200.981,18.361 201.536,18.917 C 202.077,19.467 202.429,19.749 202.588,19.749 C 202.762,19.749 202.906,19.654 202.976,19.478 L 205.52,21.422 L 200.981,21.422 L 199.833,21.422 C 199.252,21.422 198.888,21.242 198.748,20.897 C 198.547,20.259 198.305,19.227 198.043,17.764 C 197.775,16.046 197.554,14.936 197.411,14.411 L 197.316,14.347 L 195.931,16.624 C 195.962,16.847 196.054,17.059 196.155,17.296 C 195.333,17.764 194.495,18.222 193.662,18.686 C 193.101,19.029 192.655,19.464 192.374,19.957 C 192.129,20.441 191.812,21.339 191.483,22.64 L 195.596,23.351 C 195.805,23.394 196.066,23.145 196.405,22.633 C 196.737,21.994 196.957,21.649 197.081,21.573 C 197.226,22.062 197.37,22.515 197.518,22.983 C 197.786,23.561 198.171,23.847 198.655,23.847 L 199.816,23.847 L 200.981,23.847 L 206.929,23.847 C 207.431,22.328 207.673,21.449 207.673,21.222 C 207.673,20.775 206.996,19.987 205.696,18.878 M 194.529,20.164 C 194.862,19.884 195.15,19.679 195.386,19.59 C 195.862,19.154 196.218,18.791 196.405,18.492 L 196.821,20.465 L 194.529,20.164 z M 224.088,16.283 L 226.004,17.243 C 226.77,16.725 227.256,16.242 227.412,15.783 L 225.465,14.698 C 225.246,14.897 225.035,15.077 224.835,15.256 C 224.476,15.553 224.298,15.702 224.228,15.702 C 224.002,15.702 223.4,15.372 222.492,14.747 C 221.78,15.372 221.304,15.868 221.036,16.203 C 222.22,16.854 222.845,17.21 223.012,17.21 C 222.987,17.21 223.328,16.89 224.088,16.283 M 223.314,14.526 C 223.733,14.851 224.002,15.041 224.043,15.041 C 224.179,15.041 224.435,14.882 224.81,14.562 C 225.144,14.282 225.338,14.052 225.421,13.921 C 224.633,13.14 224.173,12.736 224.043,12.717 C 223.156,13.386 222.714,13.796 222.714,13.947 C 222.714,14.003 222.899,14.203 223.314,14.526 M 233.4,14.844 C 232.683,14.426 232.272,14.116 232.196,13.909 C 232.109,13.725 232.081,13.469 232.073,13.174 L 231.941,13.064 C 231.459,13.597 230.923,14.463 230.31,15.669 C 230.547,15.955 230.78,16.202 230.998,16.35 C 231.149,16.688 231.308,17.474 231.518,18.702 C 231.712,19.936 231.811,20.762 231.811,21.174 C 231.811,21.245 231.774,21.335 231.74,21.422 L 230.161,21.422 L 229.567,21.422 C 228.846,21.422 228.498,20.958 228.498,20.023 C 228.519,19.963 228.519,19.862 228.519,19.708 C 228.519,19.549 228.519,19.46 228.498,19.363 C 228.498,18.975 228.452,18.668 228.411,18.438 C 228.226,18.538 227.927,18.83 227.522,19.344 C 227.117,19.829 226.918,20.181 226.918,20.369 C 226.918,20.444 226.93,20.569 226.989,20.74 C 227.03,20.923 227.037,21.045 227.037,21.123 C 227.037,21.219 227.014,21.327 226.93,21.422 C 225.885,21.36 225.302,21.36 225.208,21.422 C 225.465,20.377 225.591,19.407 225.591,18.489 C 225.591,18.438 225.582,18.353 225.524,18.255 C 225.273,18.463 224.966,18.83 224.549,19.363 C 224.089,19.985 223.864,20.392 223.864,20.597 C 223.864,21.002 223.798,21.275 223.669,21.422 L 222.786,21.422 L 221.851,21.422 L 221.648,21.422 C 222.096,20.13 222.325,19.28 222.325,18.878 L 222.281,18.301 C 222.055,18.404 221.72,18.697 221.272,19.188 C 220.839,19.673 220.614,20.034 220.614,20.235 C 220.614,20.657 220.512,21.045 220.312,21.422 L 218.516,21.422 L 218.096,21.422 C 217.153,21.422 216.422,21.089 215.888,20.444 C 215.445,19.775 214.986,19.099 214.536,18.438 C 214.411,18.579 214.156,18.948 213.798,19.549 C 213.427,20.149 213.232,20.486 213.232,20.569 C 213.232,20.569 213.464,20.897 213.885,21.448 C 214.335,22.012 214.553,22.415 214.553,22.683 C 214.553,23.194 213.917,23.85 212.665,24.69 C 211.401,25.51 210.448,25.923 209.781,25.923 C 209.361,25.923 208.873,25.772 208.337,25.472 C 207.782,25.174 207.536,25.015 207.573,25.015 C 207.5,25.015 207.453,25.034 207.453,25.034 L 207.453,25.342 C 207.868,25.797 208.618,26.282 209.691,26.806 C 210.751,27.313 211.566,27.579 212.151,27.579 C 212.97,27.579 213.742,27.1 214.446,26.13 C 214.906,25.323 215.391,24.509 215.841,23.686 L 215.97,23.558 C 216.35,23.758 216.641,23.843 216.851,23.843 L 217.739,23.843 L 218.516,23.843 L 219.75,23.843 C 219.894,23.843 220.022,23.74 220.2,23.558 C 220.368,23.366 220.488,23.262 220.549,23.225 C 220.697,23.44 220.744,23.648 220.76,23.843 L 221.851,23.843 L 222.786,23.843 L 223.464,23.843 C 223.516,23.843 223.62,23.773 223.736,23.64 C 223.864,23.512 223.952,23.428 224.002,23.428 C 224.093,23.428 224.238,23.558 224.436,23.843 L 227.505,23.843 C 227.7,23.558 227.865,23.349 227.958,23.225 C 228.101,23.484 228.201,23.686 228.263,23.843 L 229.332,23.843 L 230.161,23.843 L 232.381,23.843 C 232.593,23.74 232.709,23.658 232.725,23.614 C 232.831,23.484 232.993,23.038 233.149,22.275 C 233.311,21.537 233.375,21.045 233.351,20.86 L 233.096,17.874 L 234.881,15.618 C 234.436,15.447 233.964,15.174 233.4,14.844 M 238.457,13.963 C 237.611,15.077 237.048,16.05 236.761,16.871 L 237.78,24.017 C 238.665,23.037 239.107,21.753 239.107,20.259 C 239.107,18.938 238.886,16.847 238.457,13.963 M 71.1732,43.248 C 70.6995,42.999 69.9633,42.762 68.9882,42.544 C 68.0145,42.318 67.3983,42.103 67.122,41.89 C 66.9357,41.734 66.8383,41.525 66.8383,41.294 C 66.8383,41.046 66.9357,40.835 67.157,40.694 C 67.497,40.448 67.9695,40.343 68.5507,40.343 C 69.092,40.343 69.5307,40.448 69.8007,40.677 C 70.0858,40.887 70.262,41.253 70.3432,41.754 L 72.387,41.683 C 72.347,40.765 72.0132,40.059 71.3808,39.518 C 70.7458,38.968 69.7832,38.699 68.5507,38.699 C 67.777,38.699 67.122,38.812 66.5957,39.049 C 66.0345,39.27 65.6195,39.608 65.3358,40.025 C 65.0358,40.467 64.892,40.922 64.892,41.427 C 64.892,42.193 65.187,42.862 65.8245,43.384 C 66.2632,43.761 67.0208,44.093 68.1008,44.339 C 68.9407,44.552 69.4933,44.691 69.7133,44.784 C 70.0657,44.903 70.302,45.049 70.4582,45.203 C 70.5907,45.364 70.6483,45.558 70.6483,45.796 C 70.6483,46.132 70.5045,46.444 70.1645,46.717 C 69.832,47.001 69.3445,47.111 68.6995,47.111 C 68.0558,47.111 67.5795,46.981 67.2233,46.686 C 66.8632,46.369 66.632,45.909 66.5007,45.253 L 64.5282,45.45 C 64.6695,46.542 65.067,47.372 65.7558,47.95 C 66.437,48.517 67.3983,48.814 68.6732,48.814 C 69.5307,48.814 70.262,48.691 70.827,48.441 C 71.422,48.217 71.8645,47.843 72.1895,47.359 C 72.5132,46.876 72.6745,46.351 72.6745,45.796 C 72.6745,45.167 72.542,44.654 72.272,44.244 C 72.0032,43.809 71.6395,43.483 71.1732,43.248 M 80.2502,46.292 L 80.2814,44.119 C 80.2814,43.318 80.1989,42.757 80.0202,42.442 C 79.8577,42.158 79.554,41.91 79.1414,41.697 C 78.7065,41.497 78.0815,41.405 77.2102,41.405 C 76.2914,41.405 75.5852,41.558 75.0902,41.891 C 74.6177,42.232 74.2765,42.718 74.0764,43.408 L 75.8064,43.723 C 75.9089,43.384 76.0815,43.142 76.2664,43.026 C 76.4489,42.881 76.7389,42.808 77.0764,42.808 C 77.5789,42.808 77.9264,42.896 78.0952,43.049 C 78.2914,43.216 78.3752,43.482 78.3752,43.851 L 78.3752,44.026 C 78.0302,44.171 77.4177,44.322 76.5227,44.486 C 75.8627,44.599 75.3427,44.763 75.0064,44.924 C 74.6514,45.098 74.3814,45.34 74.1764,45.65 C 73.9802,45.962 73.8827,46.318 73.8827,46.717 C 73.8827,47.317 74.1077,47.811 74.5302,48.216 C 74.9502,48.602 75.5352,48.814 76.2914,48.814 C 76.7077,48.814 77.0914,48.726 77.4814,48.577 C 77.8377,48.403 78.1902,48.177 78.5239,47.862 C 78.5239,47.862 78.5514,47.965 78.5977,48.082 C 78.659,48.306 78.7102,48.506 78.7664,48.621 L 80.6852,48.621 C 80.5114,48.267 80.409,47.955 80.3377,47.664 C 80.284,47.371 80.2502,46.912 80.2502,46.292 M 78.3752,45.608 C 78.3752,46.051 78.3577,46.369 78.3064,46.533 C 78.2339,46.776 78.0815,46.981 77.8502,47.142 C 77.5327,47.371 77.1952,47.476 76.8564,47.476 C 76.5502,47.476 76.2914,47.386 76.1089,47.191 C 75.8977,46.999 75.8064,46.776 75.8064,46.509 C 75.8064,46.243 75.9389,46.018 76.1752,45.833 C 76.3527,45.744 76.7077,45.65 77.2102,45.533 C 77.7477,45.398 78.1402,45.308 78.3752,45.239 L 78.3752,45.608 z M 86.8115,44.534 C 86.8115,45.556 86.764,46.207 86.6815,46.474 C 86.5602,46.717 86.3777,46.944 86.144,47.11 C 85.8715,47.3 85.5802,47.385 85.2502,47.385 C 84.9715,47.385 84.729,47.318 84.5327,47.19 C 84.3352,47.054 84.219,46.875 84.1565,46.648 C 84.0815,46.426 84.044,45.801 84.044,44.808 L 84.044,41.543 L 82.1352,41.543 L 82.1352,46.045 C 82.1352,46.717 82.2152,47.227 82.4065,47.605 C 82.5552,47.964 82.8377,48.277 83.234,48.482 C 83.6227,48.699 84.044,48.814 84.5515,48.814 C 85.0202,48.814 85.4802,48.689 85.919,48.463 C 86.3465,48.233 86.7077,47.949 86.9577,47.544 L 86.9577,48.621 L 88.719,48.621 L 88.719,41.543 L 86.8115,41.543 L 86.8115,44.534 z M 95.414,42.383 C 94.8403,41.733 94.1365,41.404 93.334,41.404 C 92.454,41.404 91.7153,41.717 91.1515,42.344 C 90.5515,42.962 90.2803,43.877 90.2803,45.08 C 90.2803,46.261 90.5515,47.155 91.1703,47.811 C 91.7615,48.482 92.4778,48.814 93.309,48.814 C 93.7127,48.814 94.1253,48.699 94.5203,48.504 C 94.9265,48.284 95.2878,47.964 95.5678,47.562 L 95.5678,48.621 L 97.3478,48.621 L 97.3478,38.825 L 95.414,38.825 L 95.414,42.383 z M 94.989,46.789 C 94.669,47.155 94.2915,47.352 93.8578,47.352 C 93.309,47.352 92.8778,47.098 92.5478,46.617 C 92.3478,46.261 92.2428,45.715 92.2428,44.937 C 92.2428,44.243 92.3865,43.699 92.699,43.364 C 93.0115,42.998 93.4077,42.808 93.8465,42.808 C 94.3253,42.808 94.704,42.998 95.0102,43.364 C 95.3065,43.723 95.4565,44.304 95.4565,45.122 C 95.4565,45.862 95.2878,46.417 94.989,46.789 M 99.237,38.828 L 101.156,38.828 L 101.156,40.576 L 99.237,40.576 L 99.237,38.828 z M 99.237,41.546 L 101.156,41.546 L 101.156,48.623 L 99.237,48.623 L 99.237,41.546 z M 109.038,44.306 L 114.065,44.306 L 114.065,42.653 L 109.038,42.653 L 109.038,40.497 L 114.41,40.497 L 114.41,38.827 L 107.037,38.827 L 107.037,48.622 L 114.6,48.622 L 114.6,46.957 L 109.038,46.957 L 109.038,44.306 z M 116.329,38.828 L 118.229,38.828 L 118.229,48.623 L 116.329,48.623 L 116.329,38.828 z M 125.52,42.441 C 124.919,41.752 124.072,41.403 122.976,41.403 C 122.025,41.403 121.224,41.734 120.599,42.402 C 119.976,43.073 119.66,43.97 119.66,45.151 C 119.66,46.13 119.894,46.943 120.368,47.597 C 120.979,48.391 121.91,48.813 123.186,48.813 C 123.961,48.813 124.634,48.62 125.171,48.266 C 125.695,47.912 126.085,47.385 126.333,46.685 L 124.403,46.378 C 124.305,46.752 124.155,46.999 123.952,47.155 C 123.742,47.338 123.488,47.402 123.195,47.402 C 122.746,47.402 122.385,47.246 122.084,46.943 C 121.779,46.647 121.632,46.206 121.632,45.648 L 126.43,45.648 C 126.454,44.198 126.144,43.142 125.52,42.441 M 121.665,44.49 C 121.647,43.97 121.779,43.56 122.059,43.266 C 122.318,42.966 122.684,42.807 123.114,42.807 C 123.488,42.807 123.846,42.961 124.11,43.247 C 124.376,43.53 124.533,43.952 124.533,44.49 L 121.665,44.49 z M 132.003,46.98 C 131.779,47.19 131.488,47.3 131.121,47.3 C 130.638,47.3 130.268,47.102 129.965,46.775 C 129.681,46.416 129.526,45.817 129.526,44.975 C 129.526,44.216 129.681,43.674 129.953,43.357 C 130.258,43.03 130.638,42.864 131.1,42.864 C 131.449,42.864 131.742,42.961 131.974,43.143 C 132.19,43.325 132.338,43.599 132.404,43.953 L 134.293,43.619 C 134.075,42.88 133.694,42.317 133.178,41.944 C 132.664,41.591 131.96,41.404 131.086,41.404 C 130.009,41.404 129.147,41.734 128.522,42.377 C 127.897,43.03 127.582,43.935 127.582,45.107 C 127.582,46.26 127.893,47.156 128.522,47.81 C 129.147,48.481 129.998,48.814 131.036,48.814 C 131.974,48.814 132.699,48.584 133.276,48.145 C 133.82,47.724 134.2,47.087 134.416,46.221 L 132.509,45.909 C 132.404,46.426 132.23,46.775 132.003,46.98 M 138.345,47.247 C 138.218,47.247 138.103,47.213 138.027,47.157 C 137.921,47.088 137.873,47.001 137.846,46.912 C 137.814,46.807 137.802,46.492 137.802,45.91 L 137.802,43.031 L 139.114,43.031 L 139.114,41.543 L 137.802,41.543 L 137.802,39.068 L 135.874,40.149 L 135.874,41.543 L 135.02,41.543 L 135.02,43.031 L 135.874,43.031 L 135.874,46.127 C 135.874,46.807 135.918,47.227 135.947,47.477 C 136,47.772 136.098,48.021 136.231,48.177 C 136.346,48.392 136.56,48.517 136.824,48.622 C 137.091,48.751 137.417,48.814 137.758,48.814 C 138.313,48.814 138.825,48.709 139.27,48.517 L 139.133,47.066 C 138.779,47.191 138.531,47.247 138.345,47.247 M 142.945,41.609 C 142.686,41.775 142.438,42.085 142.132,42.544 L 142.132,41.543 L 140.367,41.543 L 140.367,48.62 L 142.255,48.62 L 142.255,46.435 C 142.255,45.239 142.308,44.446 142.438,44.087 C 142.531,43.699 142.686,43.44 142.855,43.292 C 143.048,43.143 143.27,43.079 143.539,43.079 C 143.824,43.079 144.127,43.179 144.446,43.384 L 145.028,41.753 C 144.634,41.506 144.214,41.404 143.781,41.404 C 143.46,41.404 143.18,41.475 142.945,41.609 M 145.856,41.546 L 147.776,41.546 L 147.776,48.623 L 145.856,48.623 L 145.856,41.546 z M 145.856,38.828 L 147.776,38.828 L 147.776,40.576 L 145.856,40.576 L 145.856,38.828 z M 153.778,46.98 C 153.55,47.19 153.253,47.3 152.882,47.3 C 152.405,47.3 152.019,47.102 151.721,46.775 C 151.435,46.416 151.298,45.817 151.298,44.975 C 151.298,44.216 151.435,43.674 151.721,43.357 C 152.005,43.03 152.398,42.864 152.871,42.864 C 153.228,42.864 153.514,42.961 153.728,43.143 C 153.959,43.325 154.115,43.599 154.17,43.953 L 156.059,43.619 C 155.83,42.88 155.461,42.317 154.953,41.944 C 154.416,41.591 153.709,41.404 152.845,41.404 C 151.773,41.404 150.893,41.734 150.281,42.377 C 149.65,43.03 149.336,43.935 149.336,45.107 C 149.336,46.26 149.65,47.156 150.281,47.81 C 150.893,48.481 151.748,48.814 152.814,48.814 C 153.728,48.814 154.478,48.584 155.04,48.145 C 155.584,47.724 155.963,47.087 156.161,46.221 L 154.254,45.909 C 154.17,46.426 154.008,46.775 153.778,46.98 M 157.518,41.546 L 159.443,41.546 L 159.443,48.623 L 157.518,48.623 L 157.518,41.546 z M 157.518,38.828 L 159.443,38.828 L 159.443,40.576 L 157.518,40.576 L 157.518,38.828 z M 164.002,47.247 C 163.862,47.247 163.748,47.213 163.656,47.157 C 163.558,47.088 163.499,47.001 163.499,46.912 C 163.457,46.807 163.447,46.492 163.447,45.91 L 163.447,43.031 L 164.757,43.031 L 164.757,41.543 L 163.447,41.543 L 163.447,39.068 L 161.522,40.149 L 161.522,41.543 L 160.65,41.543 L 160.65,43.031 L 161.522,43.031 L 161.522,46.127 C 161.522,46.807 161.544,47.227 161.6,47.477 C 161.634,47.772 161.736,48.021 161.85,48.177 C 161.976,48.392 162.189,48.517 162.464,48.622 C 162.752,48.751 163.062,48.814 163.401,48.814 C 163.964,48.814 164.469,48.709 164.906,48.517 L 164.757,47.066 C 164.442,47.191 164.178,47.247 164.002,47.247 M 168.901,46.56 L 167.153,41.543 L 165.156,41.543 L 167.892,48.652 C 167.781,49.029 167.591,49.375 167.387,49.641 C 167.197,49.89 166.846,50.01 166.412,50.01 C 166.168,50.01 165.901,49.978 165.601,49.92 L 165.772,51.379 C 166.138,51.465 166.49,51.486 166.846,51.486 C 167.213,51.486 167.531,51.465 167.832,51.379 C 168.113,51.299 168.353,51.204 168.562,51.063 C 168.749,50.943 168.923,50.748 169.082,50.538 C 169.231,50.318 169.397,50.01 169.555,49.59 L 170.032,48.335 L 172.57,41.543 L 170.576,41.543 L 168.901,46.56 z M 183.331,46.616 C 182.935,46.931 182.484,47.099 181.935,47.099 C 181.216,47.099 180.62,46.844 180.156,46.317 C 179.707,45.795 179.49,44.924 179.49,43.691 C 179.49,42.507 179.707,41.682 180.166,41.17 C 180.63,40.645 181.255,40.381 181.969,40.381 C 182.543,40.381 182.971,40.54 183.371,40.817 C 183.742,41.101 183.99,41.496 184.111,42.013 L 186.094,41.542 C 185.882,40.763 185.531,40.166 185.076,39.755 C 184.314,39.047 183.31,38.698 182.091,38.698 C 180.685,38.698 179.536,39.142 178.678,40.059 C 177.817,40.94 177.394,42.207 177.394,43.828 C 177.394,45.364 177.817,46.577 178.678,47.476 C 179.52,48.357 180.62,48.777 181.962,48.777 C 183.053,48.777 183.935,48.516 184.627,47.982 C 185.335,47.476 185.846,46.685 186.124,45.607 L 184.156,45.005 C 183.99,45.744 183.714,46.26 183.331,46.616 M 191.107,41.404 C 190.397,41.404 189.743,41.558 189.171,41.858 C 188.589,42.173 188.161,42.613 187.844,43.197 C 187.517,43.777 187.358,44.37 187.358,45.005 C 187.358,45.801 187.517,46.509 187.844,47.088 C 188.161,47.634 188.597,48.082 189.225,48.364 C 189.812,48.663 190.444,48.814 191.118,48.814 C 192.203,48.814 193.1,48.44 193.799,47.739 C 194.517,47.034 194.877,46.162 194.877,45.08 C 194.877,44.027 194.517,43.143 193.821,42.442 C 193.1,41.753 192.219,41.404 191.107,41.404 M 192.374,46.717 C 192.042,47.099 191.639,47.3 191.107,47.3 C 190.609,47.3 190.186,47.099 189.868,46.717 C 189.507,46.369 189.338,45.801 189.338,45.098 C 189.338,44.385 189.507,43.85 189.868,43.482 C 190.186,43.108 190.609,42.91 191.107,42.91 C 191.639,42.91 192.042,43.108 192.374,43.482 C 192.72,43.85 192.893,44.385 192.893,45.098 C 192.893,45.801 192.72,46.369 192.374,46.717 M 205.874,41.717 C 205.511,41.497 205.067,41.405 204.519,41.405 C 204.113,41.405 203.709,41.497 203.352,41.663 C 202.976,41.866 202.619,42.14 202.315,42.508 C 202.097,42.14 201.815,41.866 201.469,41.663 C 201.129,41.497 200.726,41.405 200.268,41.405 C 199.373,41.405 198.619,41.776 197.994,42.503 L 197.994,41.543 L 196.224,41.543 L 196.224,48.621 L 198.142,48.621 L 198.142,45.186 C 198.142,44.491 198.189,44.027 198.291,43.723 C 198.409,43.441 198.567,43.216 198.811,43.049 C 199.052,42.896 199.312,42.808 199.613,42.808 C 199.851,42.808 200.041,42.864 200.177,42.962 C 200.326,43.075 200.447,43.216 200.511,43.41 C 200.596,43.599 200.608,44.058 200.608,44.747 L 200.608,48.621 L 202.528,48.621 L 202.528,45.224 C 202.528,44.552 202.587,44.077 202.701,43.748 C 202.797,43.452 202.976,43.216 203.208,43.075 C 203.441,42.896 203.69,42.808 203.964,42.808 C 204.333,42.808 204.613,42.95 204.799,43.216 C 204.912,43.423 204.983,43.878 204.983,44.568 L 204.983,48.621 L 206.905,48.621 L 206.905,44.112 C 206.905,43.441 206.827,42.933 206.707,42.632 C 206.518,42.244 206.269,41.91 205.874,41.717 M 212.806,41.404 C 212.299,41.404 211.889,41.496 211.481,41.734 C 211.105,41.943 210.769,42.232 210.542,42.578 L 210.542,41.543 L 208.732,41.543 L 208.732,51.299 L 210.667,51.299 L 210.667,47.772 C 211.042,48.145 211.375,48.404 211.697,48.577 C 212.025,48.725 212.376,48.814 212.8,48.814 C 213.636,48.814 214.356,48.482 214.946,47.808 C 215.537,47.154 215.841,46.24 215.841,45.078 C 215.841,43.897 215.537,43.02 214.957,42.358 C 214.376,41.734 213.663,41.404 212.806,41.404 M 213.425,46.79 C 213.126,47.142 212.752,47.317 212.299,47.317 C 211.843,47.317 211.456,47.109 211.109,46.736 C 210.8,46.369 210.645,45.784 210.645,44.975 C 210.645,44.27 210.794,43.748 211.109,43.389 C 211.416,43.049 211.776,42.864 212.281,42.864 C 212.732,42.864 213.119,43.049 213.425,43.409 C 213.718,43.777 213.87,44.322 213.87,45.08 C 213.87,45.862 213.718,46.435 213.425,46.79 M 223.215,46.289 L 223.237,44.116 C 223.237,43.318 223.145,42.754 222.987,42.439 C 222.806,42.155 222.511,41.907 222.095,41.694 C 221.677,41.496 221.036,41.404 220.186,41.404 C 219.255,41.404 218.541,41.555 218.055,41.888 C 217.581,42.232 217.239,42.715 217.046,43.408 L 218.767,43.72 C 218.9,43.381 219.042,43.142 219.248,43.02 C 219.429,42.879 219.681,42.805 220.031,42.805 C 220.548,42.805 220.891,42.893 221.066,43.047 C 221.255,43.213 221.359,43.479 221.359,43.85 L 221.359,44.025 C 221.006,44.17 220.368,44.322 219.476,44.483 C 218.825,44.599 218.321,44.763 217.976,44.922 C 217.615,45.098 217.322,45.337 217.151,45.649 C 216.962,45.959 216.85,46.311 216.85,46.714 C 216.85,47.316 217.075,47.808 217.484,48.215 C 217.922,48.599 218.5,48.814 219.255,48.814 C 219.681,48.814 220.07,48.723 220.451,48.574 C 220.825,48.403 221.156,48.176 221.476,47.862 C 221.5,47.9 221.518,47.962 221.552,48.082 C 221.635,48.303 221.677,48.504 221.744,48.618 L 223.648,48.618 C 223.481,48.267 223.377,47.954 223.315,47.664 C 223.243,47.37 223.215,46.912 223.215,46.289 M 221.359,45.605 C 221.359,46.048 221.311,46.368 221.263,46.533 C 221.2,46.77 221.052,46.978 220.825,47.139 C 220.5,47.37 220.186,47.475 219.845,47.475 C 219.518,47.475 219.27,47.385 219.079,47.188 C 218.868,46.999 218.767,46.77 218.767,46.506 C 218.767,46.24 218.9,46.018 219.139,45.83 C 219.292,45.74 219.66,45.649 220.186,45.533 C 220.706,45.398 221.095,45.305 221.359,45.239 L 221.359,45.605 z M 231.218,42.19 C 231.04,41.951 230.774,41.77 230.422,41.609 C 230.095,41.475 229.691,41.404 229.262,41.404 C 228.325,41.404 227.522,41.801 226.897,42.579 L 226.897,41.54 L 225.117,41.54 L 225.117,48.619 L 227.037,48.619 L 227.037,45.41 C 227.037,44.621 227.075,44.091 227.185,43.791 C 227.266,43.494 227.45,43.266 227.724,43.091 C 227.976,42.91 228.276,42.805 228.612,42.805 C 228.858,42.805 229.093,42.88 229.262,43.02 C 229.423,43.125 229.581,43.318 229.667,43.53 C 229.732,43.745 229.775,44.248 229.775,45.003 L 229.775,48.619 L 231.691,48.619 L 231.691,44.221 C 231.691,43.689 231.657,43.266 231.583,42.966 C 231.518,42.659 231.395,42.425 231.218,42.19 M 238.183,41.541 L 236.487,46.559 L 234.766,41.541 L 232.733,41.541 L 235.472,48.652 C 235.353,49.026 235.202,49.376 234.988,49.641 C 234.793,49.891 234.436,50.01 233.998,50.01 C 233.758,50.01 233.5,49.976 233.196,49.92 L 233.363,51.38 C 233.698,51.464 234.081,51.487 234.436,51.487 C 234.793,51.487 235.137,51.464 235.409,51.38 C 235.707,51.3 235.968,51.202 236.145,51.06 C 236.344,50.941 236.528,50.747 236.677,50.537 C 236.839,50.316 236.994,50.01 237.143,49.59 L 237.629,48.336 L 240.163,41.541 L 238.183,41.541 z"
     style="fill:#0071bc;fill-opacity:1;fill-rule:nonzero;stroke:none" />
</svg>
